<svg xmlns="http://www.w3.org/2000/svg" version="1.1" xmlns:xlink="http://www.w3.org/1999/xlink" xmlns:svgjs="http://svgjs.dev/svgjs" width="100%" height="100%" viewBox="0 0 1000 600"><rect width="1000" height="600" x="0" y="0" fill="#533549"/><g><rect width="333.3333333333333" height="333.3333333333333" rx="13.333333333333334" ry="13.333333333333334" y="174.29199956425282" fill="#f6b042" transform="matrix(0.8219911531596689,0,0,0.8219911531596689,0,19.734998380545704)" x="152.06976318359375"/><path d="M316.66063752738205 415.9586673872925L316.66063752738205 415.9586673872925Q309.26787879007804 415.9586673872925 303.1072465089914 413.243425752295Q296.9466142279048 410.52818411729754 292.77107457072384 406.7633532788557Q288.5727177569463 402.9757052838173 286.7701623858135 399.5303146377281L286.7701623858135 399.5303146377281Q285.1273271108571 396.7238043763441 285.53803592959616 394.76152890903506Q285.9487447483353 392.799253441726 288.7324378531226 390.81416081782027L288.7324378531226 390.81416081782027Q291.5389481145065 388.8518853505112 293.50122358181557 389.6733029879895Q295.48631620572127 390.4947206254676 297.6083117692067 392.95897353790235L297.6083117692067 392.95897353790235Q300.8939823191196 396.7238043763441 305.41177932524977 399.3705945415518Q309.92957633137996 401.99456755016274 317.16261497250764 401.99456755016274L317.16261497250764 401.99456755016274Q323.41451587998074 401.99456755016274 328.09203298228726 399.11960581898893Q332.7695500845938 396.24464408781523 335.48479171959127 389.2625941692503Q338.2000333545887 382.28054425068547 338.2000333545887 370.1189997846885L338.2000333545887 370.1189997846885L338.2000333545887 283.8701478494754Q336.214940730683 285.19354293207925 333.4312476258957 285.923691943171Q330.62473736451176 286.65384095426276 327.6813241635482 286.65384095426276L327.6813241635482 286.65384095426276Q324.5553737098116 286.65384095426276 321.9998521709905 286.0834120393473Q319.46714778876594 285.5129831244319 317.0713463461211 284.69156548695366Q314.69836206007295 283.8701478494754 312.5535493399909 283.29971893456Q310.43155377650555 282.7292900196446 308.12702096024725 282.7292900196446L308.12702096024725 282.7292900196446Q305.50304795163623 282.7292900196446 303.3582352315542 283.96141647586194Q301.23623966806883 285.19354293207925 299.75312448928867 287.3155384955646Q298.2700093105086 289.4603512156467 297.6083117692067 292.40376441661033L297.6083117692067 292.40376441661033Q297.28887157685404 294.5485771366923 295.71448777168746 295.7807035929096Q294.1629211231175 297.01283004912693 290.7175304770283 296.69338985677433L290.7175304770283 296.69338985677433Q287.27213983093907 296.03169231547247 285.9487447483353 294.388857040516Q284.6253496657315 292.74602176555953 285.1273271108571 290.4414889493012L285.1273271108571 290.4414889493012Q285.9487447483353 283.8701478494754 288.82370647950904 279.03291065099256Q291.69866821068285 274.1728562959131 296.5359054091657 271.54888328730215Q301.39595976424516 268.9249102786912 307.8075807678946 268.9249102786912L307.8075807678946 268.9249102786912Q311.4126915101601 268.9249102786912 314.1963846149474 269.4953391936066Q317.0028948763313 270.06576810852204 319.46714778876594 270.8871857460002Q321.93140070120063 271.7086033834785 324.3043849872488 272.3703009247804Q326.7001864298936 273.0319984660823 329.16443934232825 273.0319984660823L329.16443934232825 273.0319984660823Q332.10785254329187 273.0319984660823 334.82309417828935 271.79987200986494Q337.5383358132868 270.56774555364757 339.1811710882432 269.24435047104384L339.1811710882432 269.24435047104384Q341.1434465555523 267.441795099911 342.7178303607189 266.7116460888193Q344.26939700928887 265.95867992113097 346.4142097293709 265.95867992113097L346.4142097293709 265.95867992113097Q349.51734302651084 265.95867992113097 351.00045820529095 267.03108628117195Q352.48357338407106 268.10349264121294 352.48357338407106 270.4080254574713L352.48357338407106 270.4080254574713L352.48357338407106 371.7618350596449Q352.48357338407106 386.5473525342529 347.80605628176454 396.31309555760504Q343.128539179458 406.10165573755387 335.0740829008521 411.03016156242313Q327.0196266222463 415.9586673872925 316.66063752738205 415.9586673872925Z " fill="#533549" transform="matrix(0.8219911531596689,0,0,0.8219911531596689,0,19.734998380545704)"/><path d="M587.0462871849727 415.61791324525404L587.0462871849727 415.61791324525404Q578.7091685030103 415.61791324525404 574.870004859273 411.21082598557905Q571.0308412155355 406.80373872590405 571.0308412155355 398.4439030993042L571.0308412155355 398.4439030993042L571.0308412155355 332.86008393084217Q571.0308412155355 330.7474080795547 572.7346120633479 329.67971168159227Q574.4610998557979 328.6120152836297 577.8913584960603 328.6120152836297L577.8913584960603 328.6120152836297Q581.5033526934228 328.6120152836297 583.2979913197853 329.67971168159227Q585.0926299461478 330.7474080795547 585.0926299461478 332.86008393084217L585.0926299461478 332.86008393084217L585.0926299461478 396.6492644729417Q585.0926299461478 400.2612586703042 586.4102127351227 401.71514312710417Q587.7050785794603 403.19174452854156 589.8404713753853 403.19174452854156L589.8404713753853 403.19174452854156Q591.4760913892852 403.19174452854156 592.6119386211602 402.5329531340541Q593.7705027976727 401.8968786842041 594.8154822509978 400.8291822862416Q595.8831786489602 399.76148588827914 597.2007614379352 398.28488448684163L597.2007614379352 398.28488448684163Q598.0185714448852 397.3080558674292 599.7223422926977 397.71696087090413Q601.4488300851476 398.1258658743792 602.5846773170226 399.2617131062541L602.5846773170226 399.2617131062541Q604.2202973309227 400.57929589522917 604.5610515004851 402.2149159091291Q604.8790887254102 403.85053592302916 604.0612787184601 405.1681187120041L604.0612787184601 405.1681187120041Q602.2666400920976 408.4393587398041 599.5633236802352 410.711053203554Q596.8600072683727 413.00546461194153 593.6796350191228 414.3230474009165Q590.4992627698728 415.61791324525404 587.0462871849727 415.61791324525404ZM577.8913584960603 303.4189236806425L577.8913584960603 303.4189236806425Q573.3252526239229 303.4189236806425 571.0308412155355 300.89734282587995Q568.7364298071479 298.35304502648 568.7364298071479 293.28716637231753L568.7364298071479 293.28716637231753Q568.7364298071479 288.0395521610551 571.0308412155355 285.4271035277426Q573.3252526239229 282.8146548944302 577.8913584960603 282.8146548944302L577.8913584960603 282.8146548944302Q582.4801813128354 282.8146548944302 584.6837249426728 285.4271035277426Q586.8872685725103 288.0395521610551 586.8872685725103 293.28716637231753L586.8872685725103 293.28716637231753Q587.2280227420728 298.35304502648 584.8427435551353 300.89734282587995Q582.4801813128354 303.4189236806425 577.8913584960603 303.4189236806425ZM593.5887672405727 415.61791324525404L593.5887672405727 415.61791324525404Q590.4992627698728 415.61791324525404 588.9317935898853 413.755123784979Q587.3870413545353 411.86961738006653 587.2961735759852 409.484338193129Q587.2280227420728 407.12177595082903 588.6819071988728 405.23626954591657Q590.1585086003103 403.3507631410041 593.2707300156477 403.3507631410041L593.2707300156477 403.3507631410041Q598.6773628393727 403.3507631410041 603.5842228810727 399.0345436598791Q608.4910829227726 394.69560723411666 613.3070751859225 386.1086021611418Q618.1230674490726 377.5215970881668 623.1207952693225 364.345769198417Q628.1185230895724 351.19265825330456 633.6614575811224 333.3598567128672L633.6614575811224 333.3598567128672L642.4983490451098 335.8132867337172Q637.2734517784849 356.41755551992946 632.1167053457724 371.45617286995434Q626.95995891306 386.51750716461675 621.23528886441 396.3312272480167Q615.51061881576 406.1449473314166 608.7182523691476 410.89278876065407Q601.9486028671727 415.61791324525404 593.5887672405727 415.61791324525404ZM653.6296519174847 415.95866741481655L653.6296519174847 415.95866741481655Q645.7695890729098 415.95866741481655 638.9772226262974 413.4143696154165Q632.2075731243224 410.89278876065407 627.9367875324724 406.6220031688041L627.9367875324724 406.6220031688041Q626.8009403005974 405.32713732446655 626.95995891306 403.3507631410041Q627.1189775255225 401.3971059021791 629.2543703214474 399.2617131062541L629.2543703214474 399.2617131062541Q631.0490089478099 397.4670744798916 632.5256103492474 397.14903725496663Q634.0022117506849 396.8082830854041 635.9558689895099 398.28488448684163L635.9558689895099 398.28488448684163Q640.0449190242598 401.23808728971665 644.2929876714722 402.94185813752915Q648.5637732633222 404.66834592997907 654.2884433119722 404.66834592997907L654.2884433119722 404.66834592997907Q660.9899419800347 404.66834592997907 664.8291056237721 400.8291822862416Q668.6682692675096 396.9900186425042 668.6682692675096 390.7655758118292L668.6682692675096 390.7655758118292Q668.6682692675096 385.1999243756418 665.8059342431847 380.63381850350436Q662.9435992188596 376.0449956867293 658.2866255681722 371.79692703951685Q653.6296519174847 367.5488583923044 648.3820377062223 363.3689405790044Q643.1571404395972 359.1890227657045 638.5683176228224 354.69106772747955Q634.0022117506849 350.1931126892546 631.0490089478099 344.8773476440796Q628.1185230895724 339.5615825989047 628.1185230895724 333.20083810040467L628.1185230895724 333.20083810040467Q628.1185230895724 326.47662248770473 631.5487817298349 322.5693080100548Q634.9790403700974 318.6392765877673 639.8859004117974 318.6392765877673L639.8859004117974 318.6392765877673Q643.4751776645223 318.6392765877673 645.3606840694348 320.3430474355798Q647.2461904743473 322.06953522802985 647.2461904743473 325.1817566433673L647.2461904743473 325.1817566433673Q647.2461904743473 327.95322388914224 646.1103432424723 331.47435030795475Q644.9517790659597 334.99547672676715 643.1571404395972 338.9255081490546L643.1571404395972 338.9255081490546Q643.1571404395972 342.67380401424214 646.0194754639223 346.1040626545047Q648.8818104882473 349.5570382394046 653.4706333050221 352.89642910111706Q658.0367391771597 356.25853690746703 663.0344669974097 359.938681938742Q668.0094778730221 363.6188269700169 672.5074329112471 368.0259142296919Q677.005387949472 372.4557184340043 679.867722973797 378.0895207041043Q682.730057998122 383.7233229742043 682.730057998122 390.92459442429174L682.730057998122 390.92459442429174Q682.730057998122 402.2149159091291 674.8018443196345 409.07543318965406Q666.8736306411471 415.95866741481655 653.6296519174847 415.95866741481655ZM834.2066448409707 415.61791324525404L834.2066448409707 415.61791324525404Q830.2766134186832 415.61791324525404 827.2552597818957 414.48206601337904Q824.2111892004707 413.34621878150404 822.2575319616458 411.21082598557905Q820.3038747228208 409.07543318965406 819.3951969373207 405.8041931618541Q818.4865191518207 402.5329531340541 818.4865191518207 398.4439030993042L818.4865191518207 398.4439030993042L818.4865191518207 358.21219414629195Q818.4865191518207 352.64654271010454 817.0326346950208 348.80737906636705Q815.5560332935834 344.96821542262967 812.2847932657834 343.01455818380464Q809.0135532379834 341.0381840003422 803.447901801796 341.0381840003422L803.447901801796 341.0381840003422Q798.7000603725585 341.0381840003422 794.2021053343335 343.4234631872796Q789.7041502961085 345.7860254295796 785.7741188738211 350.60201769272953Q781.8668043961711 355.440726900517 778.9136015932961 362.801016963067Q775.9603987904211 370.1613070256169 774.3247787765212 379.97502710901676L774.3247787765212 379.97502710901676L769.7586729043837 379.97502710901676Q769.7586729043837 367.2081042227419 772.6210079287087 357.485251917892Q775.4833429530337 347.7396826684046 780.3902029947336 341.1290517788922Q785.2970630364337 334.4957039447422 791.7486753134835 331.2244639169422Q798.223004535171 327.95322388914224 805.4015590406209 327.95322388914224L805.4015590406209 327.95322388914224Q813.2616218851958 327.95322388914224 819.3043291587708 330.81555891346727Q825.3697533769832 333.6778939377922 828.9590306297082 339.97048760237965Q832.5710248270707 346.28579821160463 832.5710248270707 356.73559274485456L832.5710248270707 356.73559274485456L832.5710248270707 396.6492644729417Q832.5710248270707 398.9436758813291 833.1389484430082 400.4202772827666Q833.7068720589457 401.8968786842041 834.7745684569081 402.5329531340541Q835.8422648548707 403.19174452854156 837.2961493116707 403.19174452854156L837.2961493116707 403.19174452854156Q839.1135048826707 403.19174452854156 840.1584843359956 402.62382091260406Q841.226180733958 402.05589729666667 842.2938771319207 400.9882008987041Q843.3615735298831 399.9205045007417 844.6564393742206 398.4439030993042L844.6564393742206 398.4439030993042Q845.6559849382705 397.4670744798916 847.2007371736206 397.71696087090413Q848.7454894089706 397.96684726191666 850.3811094228706 399.44344866335416L850.3811094228706 399.44344866335416Q851.6986922118455 400.57929589522917 852.1075972153205 402.2149159091291Q852.5165022187955 403.85053592302916 851.6986922118455 405.32713732446655L851.6986922118455 405.32713732446655Q849.9040535854831 408.4393587398041 847.1098693950705 410.8019209821041Q844.3384021492956 413.1644832244041 841.0671621214956 414.39119823482906Q837.7959220936957 415.61791324525404 834.2066448409707 415.61791324525404ZM716.9190596775592 415.29987602032895L716.9190596775592 415.29987602032895Q713.4888010372968 415.29987602032895 711.7623132448467 414.2321796223665Q710.0585423970342 413.1644832244041 710.0585423970342 411.0518073731165L710.0585423970342 411.0518073731165L710.0585423970342 332.86008393084217Q710.0585423970342 330.7474080795547 711.7623132448467 329.67971168159227Q713.4888010372968 328.6120152836297 716.9190596775592 328.6120152836297L716.9190596775592 328.6120152836297Q720.5310538749216 328.6120152836297 722.3256925012842 329.67971168159227Q724.1203311276465 330.7474080795547 724.1203311276465 332.86008393084217L724.1203311276465 332.86008393084217L724.1203311276465 347.2626268310171Q726.8917983734216 341.6969753948297 730.2539061797715 338.01683036355473Q733.6160139861215 334.33668533227967 737.2052912388465 332.13314170244223Q740.7945684915715 329.9295980726048 744.406562688934 328.9300525085548Q747.9958399416589 327.95322388914224 751.1080613569964 327.95322388914224L751.1080613569964 327.95322388914224Q758.7863886444713 327.95322388914224 765.0108314751462 330.81555891346727Q771.2352743058212 333.6778939377922 774.8245515585462 339.97048760237965Q778.4138288112712 346.28579821160463 778.4138288112712 356.73559274485456L778.4138288112712 356.73559274485456L778.4138288112712 411.0518073731165Q778.4138288112712 413.1644832244041 776.6191901849086 414.2321796223665Q774.8245515585462 415.29987602032895 771.2352743058212 415.29987602032895L771.2352743058212 415.29987602032895Q767.6232801084587 415.29987602032895 765.9195092606462 414.2321796223665Q764.1930214681962 413.1644832244041 764.1930214681962 411.0518073731165L764.1930214681962 411.0518073731165L764.1930214681962 358.21219414629195Q764.1930214681962 352.64654271010454 762.8072878453088 348.80737906636705Q761.4215542224213 344.96821542262967 758.0594464160713 343.01455818380464Q754.6973386097213 341.0381840003422 749.1544041181714 341.0381840003422L749.1544041181714 341.0381840003422Q745.542409920809 341.0381840003422 742.0212835019964 342.7646717927921Q738.5228740278214 344.4684426406046 735.1607662214715 348.0804368379671Q731.7986584151215 351.6697140906921 729.0271911693466 356.9173283019545Q726.2557239235716 362.1422255685794 724.1203311276465 369.0027428491044L724.1203311276465 369.0027428491044L724.1203311276465 411.0518073731165Q724.1203311276465 413.1644832244041 722.3256925012842 414.2321796223665Q720.5310538749216 415.29987602032895 716.9190596775592 415.29987602032895ZM893.2479839538327 415.61791324525404L893.2479839538327 415.61791324525404Q884.2520738773828 415.61791324525404 877.3006888183078 411.0518073731165Q870.3493037592328 406.46298455634155 866.5101401154955 397.4670744798916Q862.6482595271204 388.4711644034418 862.6482595271204 374.9091484548544L862.6482595271204 374.9091484548544Q862.6482595271204 366.390294215792 864.2157287071079 359.12087193179195Q865.7604809424579 351.8287327031545 868.8727023577953 346.0359118205921Q871.9849237731328 340.2203739933922 876.3920110328078 336.22219173719225Q880.8218152371202 332.2012925363547 886.5464852857702 330.0886166850672Q892.2711553344202 327.95322388914224 899.2906912274076 327.95322388914224L899.2906912274076 327.95322388914224Q904.53830543867 327.95322388914224 909.9222213177575 329.5206930691297Q915.3288541414825 331.0654453044797 920.2357141831825 333.83691255025474L920.2357141831825 333.83691255025474L920.2357141831825 333.20083810040467Q920.2357141831825 330.90642669201725 922.0303528095449 329.7478625155047Q923.8249914359074 328.6120152836297 927.4369856332698 328.6120152836297L927.4369856332698 328.6120152836297Q931.0262628859948 328.6120152836297 932.7527506784447 329.67971168159227Q934.4565215262573 330.7474080795547 934.4565215262573 333.0191025433047L934.4565215262573 333.0191025433047L934.4565215262573 396.6492644729417Q934.4565215262573 398.9436758813291 935.0244451421947 400.4202772827666Q935.6150857027698 401.8968786842041 936.6600651560948 402.5329531340541Q937.7277615540572 403.19174452854156 939.0453443430323 403.19174452854156L939.0453443430323 403.19174452854156Q940.6809643569322 403.19174452854156 941.7486607548947 402.71468869115415Q942.7936402082197 402.2149159091291 943.8613366061822 401.14721951116667Q944.9290330041447 400.0795231132041 946.4056344055821 398.4439030993042L946.4056344055821 398.4439030993042Q947.3824630249946 397.3080558674292 948.8590644264322 397.5579422584417Q950.3356658278697 397.8078286494541 951.9712858417697 398.9436758813291L951.9712858417697 398.9436758813291Q953.6069058556697 400.4202772827666 954.0158108591447 402.1240481305791Q954.4247158626196 403.85053592302916 953.6069058556697 405.32713732446655L953.6069058556697 405.32713732446655Q951.7895502846696 408.4393587398041 949.1089508174447 410.711053203554Q946.4056344055821 413.00546461194153 943.1343943777822 414.3230474009165Q939.8631543499822 415.61791324525404 936.2511601526198 415.61791324525404L936.2511601526198 415.61791324525404Q932.5028642874323 415.61791324525404 929.7086800970199 414.73195240439156Q926.9372128512448 413.82327461889156 924.8926878338698 411.937768213979Q922.8481628164949 410.07497875370404 921.8713341970824 407.37166234184156Q920.8945055776699 404.66834592997907 920.3947327956449 401.23808728971665L920.3947327956449 401.23808728971665Q920.3947327956449 400.4202772827666 920.303865017095 399.2617131062541Q920.2357141831825 398.1258658743792 920.2357141831825 396.8082830854041L920.2357141831825 396.8082830854041Q916.6237199858199 403.85053592302916 912.216632726145 407.93958595777906Q907.8095454664701 412.0286359925291 902.9708362586825 413.82327461889156Q898.1548439955327 415.61791324525404 893.2479839538327 415.61791324525404ZM877.0508024272954 374.40937567282936L877.0508024272954 374.40937567282936Q877.0508024272954 382.90551296725425 879.0044596661203 389.2889744103917Q880.9808338495827 395.6724358535291 885.0698838843327 399.10269449379166Q889.1589339190828 402.5329531340541 895.3606598051201 402.5329531340541L895.3606598051201 402.5329531340541Q900.4492554039201 402.5329531340541 905.0153612760575 399.76148588827914Q909.6041840928325 396.9900186425042 913.53421551512 391.3334994277667Q917.4415299927699 385.6996971576667 920.2357141831825 377.36257847570437L920.2357141831825 377.36257847570437L920.2357141831825 345.9450440420421Q915.1698355290199 343.01455818380464 910.4901449336949 341.9468617858421Q905.8331712830076 340.87916538787965 900.9263112413076 340.87916538787965L900.9263112413076 340.87916538787965Q896.5192239816326 340.87916538787965 892.8390789503576 342.1967481768546Q889.1589339190828 343.49161402119216 886.2057311162077 346.19493043305454Q883.2752452579703 348.898246844917 881.2307202405952 352.89642910111706Q879.1861952232202 356.9173283019545 878.1184988252578 362.2330933471295Q877.0508024272954 367.5488583923044 877.0508024272954 374.40937567282936ZM985.5014961267193 415.61791324525404L985.5014961267193 415.61791324525404Q977.1416605001194 415.61791324525404 973.302496856382 411.21082598557905Q969.4633332126446 406.80373872590405 969.4633332126446 398.4439030993042L969.4633332126446 398.4439030993042L969.4633332126446 332.86008393084217Q969.4633332126446 330.7474080795547 971.1898210050945 329.67971168159227Q972.8935918529069 328.6120152836297 976.3238504931694 328.6120152836297L976.3238504931694 328.6120152836297Q979.9358446905319 328.6120152836297 981.7304833168944 329.67971168159227Q983.5251219432569 330.7474080795547 983.5251219432569 332.86008393084217L983.5251219432569 332.86008393084217L983.5251219432569 396.6492644729417Q983.5251219432569 400.2612586703042 984.8427047322318 401.71514312710417Q986.1375705765694 403.19174452854156 988.2729633724944 403.19174452854156L988.2729633724944 403.19174452854156Q989.9085833863943 403.19174452854156 991.0444306182693 402.5329531340541Q992.2029947947817 401.8968786842041 993.2706911927443 400.8291822862416Q994.3156706460693 399.76148588827914 995.6332534350443 398.28488448684163L995.6332534350443 398.28488448684163Q996.4510634419943 397.3080558674292 998.1775512344443 397.71696087090413Q999.8813220822567 398.1258658743792 1001.0398862587692 399.2617131062541L1001.0398862587692 399.2617131062541Q1002.6755062726692 400.57929589522917 1002.9935434975941 402.2149159091291Q1003.3115807225192 403.85053592302916 1002.4937707155691 405.1681187120041L1002.4937707155691 405.1681187120041Q1000.6991320892067 408.4393587398041 997.9958156773444 410.711053203554Q995.3152162101192 413.00546461194153 992.1121270162319 414.3230474009165Q988.9317547669818 415.61791324525404 985.5014961267193 415.61791324525404ZM976.3238504931694 303.4189236806425L976.3238504931694 303.4189236806425Q971.757744621032 303.4189236806425 969.4633332126446 300.89734282587995Q967.168921804257 298.35304502648 967.168921804257 293.28716637231753L967.168921804257 293.28716637231753Q967.168921804257 288.0395521610551 969.4633332126446 285.4271035277426Q971.757744621032 282.8146548944302 976.3238504931694 282.8146548944302L976.3238504931694 282.8146548944302Q980.9126733099444 282.8146548944302 983.1162169397819 285.4271035277426Q985.3197605696193 288.0395521610551 985.3197605696193 293.28716637231753L985.3197605696193 293.28716637231753Q985.6605147391818 298.35304502648 983.2752355522443 300.89734282587995Q980.9126733099444 303.4189236806425 976.3238504931694 303.4189236806425ZM992.0439761823193 415.61791324525404L992.0439761823193 415.61791324525404Q988.9317547669818 415.61791324525404 987.4551533655443 413.755123784979Q985.9785519641068 411.86961738006653 985.9785519641068 409.484338193129Q985.9785519641068 407.12177595082903 987.4551533655443 405.23626954591657Q988.9317547669818 403.3507631410041 992.0439761823193 403.3507631410041L992.0439761823193 403.3507631410041Q996.7691006669193 403.3507631410041 1001.4487912622442 401.23808728971665Q1006.1057649129317 399.10269449379166 1010.6718707850691 395.10451223759173Q1015.2606936018441 391.0836130367542 1019.5996300276065 385.5406785452043Q1023.938566453369 379.97502710901676 1027.845880931019 373.27352844095435Q1031.7759123533065 366.5493128282544 1035.2970387721189 358.87098554077943Q1038.8181651909313 351.19265825330456 1041.5896324367063 342.92369040525466Q1044.383816627119 334.65472255720465 1046.3374738659438 326.0677174842298Q1048.2911311047687 317.4807124112549 1049.3588275027314 308.7346887258175Q1050.4265239006938 299.98866504038006 1050.4265239006938 291.8105649708801L1050.4265239006938 291.8105649708801Q1050.4265239006938 289.5161535624926 1052.561916696619 288.2894385520676Q1054.6745925479063 287.06272354164264 1057.4687767383189 287.06272354164264Q1060.2402439840937 287.06272354164264 1062.3756367800188 288.2894385520676Q1064.4883126313061 289.5161535624926 1064.4883126313061 291.8105649708801L1064.4883126313061 291.8105649708801Q1064.4883126313061 299.488892258355 1063.1934467869687 308.25763288842995Q1061.8758639979937 317.0036565738674 1059.4224339771436 326.15858526277975Q1056.9690039562938 335.31351395169224 1053.5387453160313 344.4684426406046Q1050.1084866757687 353.6460882741545 1045.9285688624689 362.4602627935045Q1041.748651049169 371.2971542574919 1036.8417910074688 379.2253679359793Q1031.934930965769 387.1762985591042 1026.5510150866814 393.78692944861666Q1021.1443822629565 400.4202772827666 1015.4197122143066 405.32713732446655Q1009.6950421656567 410.2339973661666 1003.8113535045443 412.9373137780291Q997.9276648434318 415.61791324525404 992.0439761823193 415.61791324525404ZM1039.1362024158564 415.61791324525404L1039.1362024158564 415.61791324525404Q1035.0471523811066 415.61791324525404 1031.934930965769 414.48206601337904Q1028.845426495069 413.34621878150404 1026.9599200901566 411.21082598557905Q1025.074413685244 409.07543318965406 1024.165735899744 405.8041931618541Q1023.2797750588816 402.5329531340541 1023.2797750588816 398.4439030993042L1023.2797750588816 398.4439030993042L1023.2797750588816 298.19402641401757Q1023.2797750588816 281.6788076625552 1028.5046723255066 273.81874481798025Q1033.752286536769 265.9586819734053 1044.5428352395813 265.9586819734053L1044.5428352395813 265.9586819734053Q1051.2443339076437 265.9586819734053 1055.6514211673186 268.9118847762803Q1060.0812253716313 271.8650875791552 1062.2847690014687 277.4988898492552Q1064.4883126313061 283.13269211935517 1064.4883126313061 291.8105649708801L1064.4883126313061 291.8105649708801Q1064.4883126313061 294.9227863862176 1062.3756367800188 296.3993877876551Q1060.2402439840937 297.85327224445507 1057.4687767383189 297.85327224445507Q1054.6745925479063 297.85327224445507 1052.561916696619 296.3993877876551Q1050.4265239006938 294.9227863862176 1050.4265239006938 291.8105649708801L1050.4265239006938 291.8105649708801Q1050.4265239006938 287.22174215410513 1049.7677325062064 284.5411426868801Q1049.1089411117189 281.8378262750176 1047.7232074888313 280.4520926521302Q1046.3374738659438 279.04364208460515 1044.2020810700187 279.04364208460515L1044.2020810700187 279.04364208460515Q1041.930386606269 279.04364208460515 1040.3629174262815 280.86099765560516Q1038.8181651909313 282.65563628196765 1038.068506017894 287.06272354164264Q1037.3415637894939 291.49252774595504 1037.3415637894939 299.17085503343003L1037.3415637894939 299.17085503343003L1037.3415637894939 396.6492644729417Q1037.3415637894939 398.9436758813291 1037.9094874054313 400.4202772827666Q1038.4774110213689 401.8968786842041 1039.5451074193313 402.5329531340541Q1040.6128038172938 403.19174452854156 1041.930386606269 403.19174452854156L1041.930386606269 403.19174452854156Q1043.3842710630688 403.19174452854156 1044.610986073494 402.62382091260406Q1045.8377010839188 402.05589729666667 1046.9962652604313 400.89733312015414Q1048.1321124923063 399.76148588827914 1049.2906766688188 398.4439030993042L1049.2906766688188 398.4439030993042Q1050.4265239006938 397.3080558674292 1051.9712761360438 397.71696087090413Q1053.5387453160313 398.1258658743792 1055.0153467174687 399.2617131062541L1055.0153467174687 399.2617131062541Q1056.6509667313687 400.7383145076916 1056.8781361777437 402.3057836876791Q1057.1280225687563 403.85053592302916 1056.310212561806 405.32713732446655L1056.310212561806 405.32713732446655Q1054.5155739354436 408.59837735226654 1051.7441066896688 410.89278876065407Q1048.9499224992564 413.1644832244041 1045.7695502500064 414.39119823482906Q1042.566461056119 415.61791324525404 1039.1362024158564 415.61791324525404Z " fill="#f6b042" transform="matrix(0.8219911531596689,0,0,0.8219911531596689,0,19.734998380545704)"/></g></svg>